<svg width="106" height="48" viewBox="0 0 106 48" fill="none" xmlns="http://www.w3.org/2000/svg">
<rect x="0.5" y="0.5" width="47" height="47" rx="3.5" stroke="#C8CACB"/>
<path d="M32.1603 17C31.1002 15.9373 29.6951 15.2886 28.1986 15.1712C26.7021 15.0538 25.213 15.4755 24.0003 16.36C22.7279 15.4137 21.1443 14.9846 19.5682 15.1591C17.9921 15.3336 16.5407 16.0988 15.5062 17.3006C14.4718 18.5024 13.9311 20.0516 13.9931 21.6361C14.0551 23.2206 14.7151 24.7227 15.8403 25.84L22.0503 32.06C22.5703 32.5718 23.2707 32.8587 24.0003 32.8587C24.7299 32.8587 25.4303 32.5718 25.9503 32.06L32.1603 25.84C33.3279 24.6653 33.9832 23.0763 33.9832 21.42C33.9832 19.7638 33.3279 18.1748 32.1603 17ZM30.7503 24.46L24.5403 30.67C24.4696 30.7414 24.3855 30.798 24.2928 30.8367C24.2001 30.8753 24.1007 30.8953 24.0003 30.8953C23.8999 30.8953 23.8004 30.8753 23.7077 30.8367C23.615 30.798 23.5309 30.7414 23.4603 30.67L17.2503 24.43C16.466 23.6284 16.0269 22.5515 16.0269 21.43C16.0269 20.3086 16.466 19.2317 17.2503 18.43C18.0494 17.641 19.1272 17.1986 20.2503 17.1986C21.3733 17.1986 22.4511 17.641 23.2503 18.43C23.3432 18.5238 23.4538 18.5982 23.5757 18.6489C23.6976 18.6997 23.8283 18.7258 23.9603 18.7258C24.0923 18.7258 24.223 18.6997 24.3449 18.6489C24.4667 18.5982 24.5773 18.5238 24.6703 18.43C25.4694 17.641 26.5472 17.1986 27.6703 17.1986C28.7933 17.1986 29.8711 17.641 30.6703 18.43C31.4653 19.2212 31.9189 20.2922 31.9338 21.4137C31.9488 22.5352 31.5239 23.618 30.7503 24.43V24.46Z" fill="#C8CACB"/>
<rect x="58.5" y="0.5" width="47" height="47" rx="3.5" stroke="#C8CACB"/>
<path d="M75 24C74.7348 24 74.4804 24.1054 74.2929 24.2929C74.1054 24.4804 74 24.7348 74 25V33C74 33.2652 74.1054 33.5196 74.2929 33.7071C74.4804 33.8946 74.7348 34 75 34C75.2652 34 75.5196 33.8946 75.7071 33.7071C75.8946 33.5196 76 33.2652 76 33V25C76 24.7348 75.8946 24.4804 75.7071 24.2929C75.5196 24.1054 75.2652 24 75 24ZM80 14C79.7348 14 79.4804 14.1054 79.2929 14.2929C79.1054 14.4804 79 14.7348 79 15V33C79 33.2652 79.1054 33.5196 79.2929 33.7071C79.4804 33.8946 79.7348 34 80 34C80.2652 34 80.5196 33.8946 80.7071 33.7071C80.8946 33.5196 81 33.2652 81 33V15C81 14.7348 80.8946 14.4804 80.7071 14.2929C80.5196 14.1054 80.2652 14 80 14ZM90 28C89.7348 28 89.4804 28.1054 89.2929 28.2929C89.1054 28.4804 89 28.7348 89 29V33C89 33.2652 89.1054 33.5196 89.2929 33.7071C89.4804 33.8946 89.7348 34 90 34C90.2652 34 90.5196 33.8946 90.7071 33.7071C90.8946 33.5196 91 33.2652 91 33V29C91 28.7348 90.8946 28.4804 90.7071 28.2929C90.5196 28.1054 90.2652 28 90 28ZM85 20C84.7348 20 84.4804 20.1054 84.2929 20.2929C84.1054 20.4804 84 20.7348 84 21V33C84 33.2652 84.1054 33.5196 84.2929 33.7071C84.4804 33.8946 84.7348 34 85 34C85.2652 34 85.5196 33.8946 85.7071 33.7071C85.8946 33.5196 86 33.2652 86 33V21C86 20.7348 85.8946 20.4804 85.7071 20.2929C85.5196 20.1054 85.2652 20 85 20Z" fill="#C8CACB"/>
</svg>
