<svg width="192" height="48" viewBox="0 0 192 48" fill="none" xmlns="http://www.w3.org/2000/svg">
<path d="M174.581 16H162.419C161.046 16 160 17.0462 160 18.4192V30.5808C160 31.9538 161.046 33 162.419 33H174.581C175.954 33 177 31.9538 177 30.5808V18.4192C177 17.0462 175.954 16 174.581 16ZM168.5 29.6C171.312 29.6 173.6 27.3769 173.6 24.6962C173.6 24.2385 173.535 23.7154 173.404 23.3231H174.842V30.2538C174.842 30.5808 174.581 30.9077 174.188 30.9077H162.812C162.485 30.9077 162.158 30.6462 162.158 30.2538V23.2577H163.662C163.531 23.7154 163.465 24.1731 163.465 24.6308C163.4 27.3769 165.688 29.6 168.5 29.6ZM168.5 27.6385C166.669 27.6385 165.231 26.2 165.231 24.4346C165.231 22.6692 166.669 21.2308 168.5 21.2308C170.331 21.2308 171.769 22.6692 171.769 24.4346C171.769 26.2654 170.331 27.6385 168.5 27.6385ZM174.777 20.6423C174.777 21.0346 174.45 21.3615 174.058 21.3615H172.227C171.835 21.3615 171.508 21.0346 171.508 20.6423V18.8769C171.508 18.4846 171.835 18.1577 172.227 18.1577H174.058C174.45 18.1577 174.777 18.4846 174.777 18.8769V20.6423Z" fill="#4878A6"/>
<path d="M129.806 29.1153C129.806 29.0322 129.723 29.0322 129.723 28.9492C129.391 28.285 128.644 27.4548 127.648 26.5416C127.149 26.1264 126.9 25.7943 126.734 25.6283C126.485 25.2962 126.485 25.0471 126.568 24.715C126.651 24.466 126.983 24.0509 127.565 23.3036C127.897 22.8885 128.063 22.6395 128.312 22.3904C129.557 20.7299 130.138 19.6506 129.972 19.1525L129.889 19.0695C129.806 18.9865 129.723 18.9034 129.557 18.9034C129.391 18.8204 129.142 18.8204 128.893 18.9034H125.738C125.655 18.9034 125.655 18.9034 125.489 18.9034C125.406 18.9034 125.323 18.9034 125.323 18.9034H125.24H125.157L125.074 18.9865C124.991 19.0695 124.991 19.0695 124.991 19.1525C124.659 20.0658 124.244 20.813 123.828 21.6432C123.579 22.0583 123.33 22.4734 123.081 22.8055C122.832 23.1376 122.666 23.3867 122.5 23.5527C122.334 23.7188 122.168 23.8018 122.085 23.9678C122.002 24.0509 121.836 24.1339 121.836 24.0509C121.753 24.0509 121.67 24.0509 121.67 23.9678C121.587 23.8848 121.504 23.8018 121.421 23.7188C121.338 23.6357 121.338 23.4697 121.255 23.3036C121.255 23.1376 121.255 22.9716 121.255 22.8885C121.255 22.8055 121.255 22.5564 121.255 22.3904C121.255 22.1413 121.255 21.9753 121.255 21.8923C121.255 21.6432 121.255 21.3111 121.255 20.979C121.255 20.6469 121.255 20.3978 121.255 20.2318C121.255 20.0658 121.255 19.8167 121.255 19.6506C121.255 19.4016 121.255 19.2355 121.255 19.1525C121.255 19.0695 121.172 18.9034 121.172 18.8204C121.089 18.7374 121.006 18.6544 120.923 18.5713C120.84 18.4883 120.674 18.4883 120.591 18.4053C120.175 18.3223 119.677 18.2393 119.096 18.2393C117.768 18.2393 116.855 18.3223 116.522 18.4883C116.356 18.5714 116.19 18.6544 116.107 18.8204C115.941 18.9865 115.941 19.0695 116.024 19.0695C116.439 19.1525 116.772 19.3185 116.938 19.5676L117.021 19.7337C117.104 19.8167 117.104 19.9827 117.187 20.2318C117.27 20.4809 117.27 20.7299 117.27 21.062C117.27 21.5602 117.27 22.0583 117.27 22.3904C117.27 22.8055 117.187 23.0546 117.187 23.3036C117.187 23.5527 117.104 23.7188 117.021 23.8018C116.938 23.9678 116.938 24.0509 116.855 24.0509C116.855 24.0509 116.855 24.1339 116.772 24.1339C116.689 24.1339 116.605 24.2169 116.439 24.2169C116.356 24.2169 116.19 24.1339 116.107 24.0509C115.941 23.9678 115.775 23.8018 115.692 23.6357C115.526 23.4697 115.36 23.2206 115.194 22.8885C115.028 22.5564 114.779 22.2244 114.613 21.7262L114.447 21.3941C114.364 21.2281 114.198 20.896 114.032 20.4809C113.866 20.0658 113.7 19.7337 113.534 19.3186C113.451 19.1525 113.368 19.0695 113.285 18.9865H113.202C113.202 18.9865 113.119 18.9034 113.035 18.9034C112.952 18.9034 112.869 18.8204 112.786 18.8204H109.798C109.466 18.8204 109.299 18.9034 109.216 18.9865L109.133 19.0695C109.133 19.0695 109.133 19.1525 109.133 19.2355C109.133 19.3186 109.133 19.4016 109.216 19.5676C109.632 20.5639 110.13 21.5602 110.628 22.5564C111.126 23.4697 111.624 24.2999 111.956 24.8811C112.371 25.4623 112.703 26.0434 113.119 26.5416C113.534 27.0397 113.783 27.3718 113.866 27.5378C114.032 27.7039 114.115 27.7869 114.198 27.8699L114.447 28.119C114.613 28.285 114.862 28.5341 115.194 28.7832C115.526 29.0322 115.941 29.2813 116.356 29.5304C116.772 29.7794 117.27 29.9455 117.768 30.1115C118.349 30.2776 118.847 30.3606 119.345 30.2776H120.591C120.84 30.2776 121.006 30.1946 121.172 30.0285L121.255 29.9455C121.255 29.8625 121.338 29.8625 121.338 29.7794C121.338 29.6964 121.338 29.6134 121.338 29.4474C121.338 29.1153 121.338 28.8662 121.421 28.6171C121.504 28.3681 121.504 28.202 121.587 28.036C121.67 27.8699 121.753 27.7869 121.836 27.7039C121.919 27.6208 122.002 27.5378 122.002 27.5378H122.085C122.251 27.4548 122.5 27.5378 122.666 27.7039C122.915 27.8699 123.164 28.119 123.33 28.3681C123.496 28.6171 123.745 28.8662 124.078 29.1983C124.41 29.5304 124.659 29.7794 124.825 29.8625L125.074 30.0285C125.24 30.1115 125.406 30.1946 125.655 30.2776C125.904 30.3606 126.07 30.3606 126.236 30.3606L129.059 30.2776C129.308 30.2776 129.557 30.1946 129.723 30.1115C129.889 30.0285 129.972 29.9455 129.972 29.7794C129.972 29.6964 129.972 29.5304 129.972 29.4474C129.806 29.2813 129.806 29.1983 129.806 29.1153Z" fill="#2A5275"/>
<path d="M81 17.8186C81 16.3212 79.6788 15 78.1813 15H66.8186C65.3212 15 64 16.3212 64 17.8186V29.1813C64 30.6787 65.3212 32 66.8186 32H72.544V25.5699H70.4301V22.7513H72.544V21.6062C72.544 19.6684 73.9534 17.9948 75.715 17.9948H78.0052V20.8135H75.715C75.4508 20.8135 75.1865 21.0777 75.1865 21.6062V22.7513H78.0052V25.5699H75.1865V32H78.1813C79.6788 32 81 30.6787 81 29.1813V17.8186Z" fill="#4878A6"/>
<path d="M33.6 17.9C32.9 18.2 32.1 18.4 31.3 18.5C32.1 18 32.8 17.2 33.1 16.3C32.3 16.8 31.5 17.1 30.5 17.3C29.8 16.5 28.7 16 27.6 16C25.4 16 23.6 17.8 23.6 20C23.6 20.3 23.6 20.6 23.7 20.9C20.4 20.7 17.4 19.1 15.4 16.7C15.1 17.3 14.9 18 14.9 18.7C14.9 20.1 15.6 21.3 16.7 22C16 22 15.4 21.8 14.9 21.5C14.9 23.4 16.3 25.1 18.1 25.4C17.8 25.5 17.4 25.5 17 25.5C16.7 25.5 16.5 25.5 16.2 25.4C16.7 27 18.2 28.2 20 28.2C18.6 29.3 16.9 29.9 15 29.9C14.7 29.9 14.4 29.9 14 29.8C15.8 30.9 17.9 31.6 20.2 31.6C27.6 31.6 31.6 25.5 31.6 20.2V19.7C32.4 19.4 33.1 18.7 33.6 17.9Z" fill="#4878A6"/>
</svg>
